<?xml version="1.0" encoding="utf-8"?>
<!-- Generator: Adobe Illustrator 27.0.0, SVG Export Plug-In . SVG Version: 6.00 Build 0)  -->
<svg version="1.1" id="Layer_1" xmlns="http://www.w3.org/2000/svg" xmlns:xlink="http://www.w3.org/1999/xlink" x="0px" y="0px"
	 viewBox="0 0 184.6 64" style="enable-background:new 0 0 184.6 64;" xml:space="preserve">
<style type="text/css">
	.st0{fill:#FFFFFF;}
	.st1{fill:url(#SVGID_1_);}
	.st2{fill:url(#SVGID_00000129193177557183824140000000584091885217106053_);}
	.st3{fill:url(#SVGID_00000024683858436051036950000002272531918804887970_);}
	.st4{enable-background:new    ;}
	.st5{fill:#48BEB7;}
</style>
<g transform="translate(-140 -49.999)">
	<g transform="translate(211.26 63.231)">
		<path class="st0" d="M48.3,23.1L47.6,24c-1.9,2.5-4.8,4-8,4c-4.3-0.1-8-2.8-9.4-6.9c0-0.1-0.1-0.3-0.1-0.4
			c-0.3-0.9-0.4-1.8-0.4-2.7c0-5.4,4.4-9.9,9.9-10c3.2,0,6.1,1.5,7.9,4.2l0.7,1l6.8-5.1l-0.7-0.9c-3.5-4.5-8.9-7.1-14.6-7
			C31,0,23.5,6,21.7,14.4c-1.6-0.3-3.2-0.6-4.7-0.7c-4.8-0.6-7-1.1-7-2.9c0-1.6,1.7-3.2,5.6-3.2c2,0,3.9,0.5,5.6,1.6
			c1.2-2.4,2.9-4.5,4.9-6.3C23,1,19.4,0.1,15.9,0.2C7.6,0.2,1.5,4.8,1.5,11c0,8.5,7.9,9.6,13.6,10.3c4.4,0.6,7.1,1,7.1,3
			c0,2.7-3.4,3.6-6.5,3.7c-3.3-0.1-6.5-1.5-8.7-4l-0.8-0.8L0,28.7l0.8,0.8c3.8,4,9,6.3,14.6,6.3c4.5,0,9.1-1.5,12.1-4.4
			c3.4,2.9,7.7,4.4,12.2,4.4c5.7,0.1,11.1-2.5,14.6-7l0.7-0.9L48.3,23.1z"/>
		<path class="st0" d="M83.8,11.3c0-6.6-5.2-11.2-12.7-11.2c-5.6,0-10.8,2.8-13.9,7.4l-0.8,1.1l7.6,2.9l0.5-0.7
			c1.3-2.2,3.7-3.5,6.2-3.5c2.8,0,5,1.7,5,3.9c0,1.4-0.7,2.7-2.3,4L57.7,27.6v7.5h26v-7.5H69.4l8.7-6.6C82,18.1,83.8,14.9,83.8,11.3
			z"/>
		<path class="st0" d="M109.9,16.4c1.3-1.3,2-3.1,1.9-5c0-6.7-5.1-11.4-12.3-11.4C94,0,89,2.9,86.1,7.6l-0.7,1.2l7.4,3l0.5-0.8
			c1.2-2.2,3.5-3.6,6-3.6c2.7,0,4.8,1.8,4.8,3.9c0,3.8-6.6,6.6-6.6,6.6c4.3-0.1,7.5,2.3,7.5,5.4c0,3-2.8,5.5-6.3,5.5
			c-2.5-0.1-4.8-1.1-6.6-2.8l-0.7-0.7l-6.5,5.1l0.8,0.9c3.3,3.5,8,5.3,12.7,5.2c9.7,0,15-6.9,15-13.3
			C113.3,19.2,111.7,17.8,109.9,16.4L109.9,16.4z"/>
	</g>
	<g transform="translate(140 49.999)">
		
			<linearGradient id="SVGID_1_" gradientUnits="userSpaceOnUse" x1="-194.3326" y1="316.0015" x2="-191.1626" y2="312.8315" gradientTransform="matrix(13.854 0 0 -13.854 2709.5908 4379.2891)">
			<stop  offset="0" style="stop-color:#80C46E"/>
			<stop  offset="2.800000e-02" style="stop-color:#7FC470"/>
			<stop  offset="1" style="stop-color:#48BEB7"/>
		</linearGradient>
		<path class="st1" d="M55.7,32.9c-3.8,0-6.9,3.1-6.9,6.9c0,3.8,3.1,6.9,6.9,6.9c3.8,0,6.9-3.1,6.9-6.9c0,0,0,0,0,0
			C62.7,36,59.6,32.9,55.7,32.9z M55.7,44.5c-2.6,0-4.7-2.1-4.7-4.7c0-2.6,2.1-4.7,4.7-4.7c2.6,0,4.7,2.1,4.7,4.7
			C60.5,42.4,58.3,44.5,55.7,44.5z"/>
		
			<linearGradient id="SVGID_00000104666071150533718480000005949942727070963613_" gradientUnits="userSpaceOnUse" x1="-191.9684" y1="313.6377" x2="-188.7994" y2="310.4687" gradientTransform="matrix(13.854 0 0 -13.854 2660.8113 4362.5908)">
			<stop  offset="0" style="stop-color:#80C46E"/>
			<stop  offset="2.800000e-02" style="stop-color:#7FC470"/>
			<stop  offset="1" style="stop-color:#48BEB7"/>
		</linearGradient>
		<path style="fill:url(#SVGID_00000104666071150533718480000005949942727070963613_);" d="M7,30.1c3.8,0,6.9-3.1,6.9-6.9
			s-3.1-6.9-6.9-6.9c-3.8,0-6.9,3.1-6.9,6.9c0,0,0,0,0,0C0,27,3.1,30.1,7,30.1z M7,18.4c2.6,0,4.7,2.1,4.7,4.7
			c0,2.6-2.1,4.7-4.7,4.7c-2.6,0-4.7-2.1-4.7-4.7C2.2,20.5,4.4,18.4,7,18.4L7,18.4z"/>
		
			<linearGradient id="SVGID_00000061463084689084925540000016633565565708659856_" gradientUnits="userSpaceOnUse" x1="-203.5407" y1="328.6049" x2="-202.8407" y2="327.9059" gradientTransform="matrix(62.5353 0 0 -62.8793 12737.8906 20671.7949)">
			<stop  offset="0" style="stop-color:#80C46E"/>
			<stop  offset="2.800000e-02" style="stop-color:#7FC470"/>
			<stop  offset="1" style="stop-color:#48BEB7"/>
		</linearGradient>
		<path style="fill:url(#SVGID_00000061463084689084925540000016633565565708659856_);" d="M40.6,30c2.9-0.5,5.2-2.7,5.7-5.6h2.5
			v5.8h7c3.8,0,6.9-3.2,6.8-7c0-3.8-3.1-6.8-6.8-6.8h-7v5.8h-2.5c-0.4-3-2.8-5.4-5.8-5.9v-2.5c3.8-0.5,6.5-3.9,6-7.7
			c-0.5-3.8-3.9-6.5-7.7-6c-3.8,0.5-6.5,3.9-6,7.7c0.4,3,2.6,5.4,5.5,5.9v2.6c-2.9,0.5-5.2,2.7-5.7,5.6h-2.5V6.9
			c0-3.8-3.1-6.9-6.9-6.9s-6.9,3.1-6.9,6.9l0,0v22.8h5.9V33c-3,0.4-5.3,2.8-5.8,5.7h-2.5v-5.8h-7c-3.8,0-6.9,3.2-6.8,7
			c0,3.8,3.1,6.8,6.8,6.8h7v-5.8h2.5c0.5,3,2.8,5.3,5.8,5.7v2.4c-3.8,0.6-6.3,4.2-5.7,7.9s4.2,6.3,7.9,5.7s6.3-4.2,5.7-7.9
			c-0.5-2.9-2.8-5.3-5.7-5.7v-2.4c2.9-0.5,5.2-2.8,5.6-5.7h2.5v14.8c0,3.8,3.1,6.9,6.9,6.9s6.9-3.1,6.9-6.9V32.9h-5.8V30z M51,18.6
			h4.7c2.6,0,4.7,2.2,4.6,4.8c0,2.6-2.1,4.6-4.6,4.6H51V18.6z M11.7,44.6H6.9c-2.6,0-4.7-2.1-4.7-4.7c0-2.6,2.1-4.7,4.7-4.7h4.7
			V44.6z M35,6.9c0-2.6,2.1-4.7,4.7-4.7s4.7,2.1,4.7,4.7c0,2.6-2.1,4.7-4.7,4.7C37.2,11.6,35,9.5,35,6.9z M39.5,18.4
			c2.6,0,4.7,2.1,4.7,4.7c0,2.6-2.1,4.7-4.7,4.7c-2.6,0-4.7-2.1-4.7-4.7c0,0,0,0,0,0C34.8,20.5,36.9,18.4,39.5,18.4z M18.5,6.9
			c0-2.6,2-4.7,4.6-4.8s4.7,2,4.8,4.6c0,0,0,0.1,0,0.1v20.6h-9.4V6.9z M28,55.9c0,2.6-2.1,4.7-4.7,4.7c-2.6,0-4.7-2.1-4.7-4.7
			c0-2.6,2.1-4.7,4.7-4.7C25.9,51.2,28,53.3,28,55.9z M23.2,44.6c-2.6,0-4.7-2.1-4.7-4.7c0-2.6,2.1-4.7,4.7-4.7
			c2.6,0,4.7,2.1,4.7,4.7C27.9,42.4,25.8,44.5,23.2,44.6L23.2,44.6z M32.6,32.9v5.8h-2.5c-0.5-2.9-2.7-5.2-5.6-5.7v-3.3h5.8v-5.7
			h2.5c0.4,3,2.8,5.4,5.8,5.9v2.9L32.6,32.9z M44.2,55.7c0,2.6-2.2,4.7-4.8,4.6c-2.6,0-4.6-2.1-4.6-4.6V35.1h9.4V55.7z"/>
	</g>
	<g class="st4">
		<path class="st5" d="M213.7,110.9c-0.1-0.1-0.1-0.2-0.1-0.4v-4.7c0-0.2,0-0.3,0.1-0.4c0.1-0.1,0.2-0.1,0.4-0.1h1.6
			c0.9,0,1.6,0.2,2.1,0.7c0.5,0.5,0.8,1.2,0.8,2.1c0,0.9-0.3,1.6-0.8,2.1s-1.2,0.7-2.1,0.7h-1.6C213.9,111,213.8,111,213.7,110.9z
			 M215.6,110.2c1.3,0,1.9-0.7,1.9-2c0-1.3-0.6-2-1.9-2h-1v4H215.6z"/>
		<path class="st5" d="M220.6,110.9c-0.1-0.1-0.1-0.2-0.1-0.4v-4.7c0-0.2,0-0.3,0.1-0.4c0.1-0.1,0.2-0.1,0.4-0.1h2.9
			c0.2,0,0.3,0,0.4,0.1c0.1,0.1,0.1,0.2,0.1,0.3c0,0.1,0,0.2-0.1,0.3c-0.1,0.1-0.2,0.1-0.4,0.1h-2.4v1.6h2.2c0.2,0,0.3,0,0.4,0.1
			s0.1,0.2,0.1,0.3c0,0.1,0,0.2-0.1,0.3s-0.2,0.1-0.4,0.1h-2.2v1.6h2.4c0.2,0,0.3,0,0.4,0.1c0.1,0.1,0.1,0.2,0.1,0.3
			c0,0.1,0,0.2-0.1,0.3c-0.1,0.1-0.2,0.1-0.4,0.1h-2.9C220.8,111,220.7,111,220.6,110.9z"/>
		<path class="st5" d="M230.6,105.5c0.1,0.1,0.1,0.2,0.1,0.4v4.7c0,0.2,0,0.3-0.1,0.4c-0.1,0.1-0.2,0.1-0.4,0.1
			c-0.2,0-0.3-0.1-0.4-0.2l-2.9-3.8v3.5c0,0.2,0,0.3-0.1,0.4c-0.1,0.1-0.2,0.1-0.4,0.1s-0.3,0-0.4-0.1c-0.1-0.1-0.1-0.2-0.1-0.4
			v-4.7c0-0.2,0-0.3,0.1-0.4c0.1-0.1,0.2-0.1,0.4-0.1c0.2,0,0.3,0.1,0.4,0.2l2.9,3.8v-3.5c0-0.2,0-0.3,0.1-0.4
			c0.1-0.1,0.2-0.1,0.3-0.1C230.4,105.3,230.5,105.4,230.6,105.5z"/>
		<path class="st5" d="M237.3,105.3c0.1,0,0.3,0,0.4,0.1c0.1,0.1,0.2,0.2,0.2,0.3c0,0.1,0,0.1,0,0.2l-2.2,4.8c0,0.1-0.1,0.2-0.2,0.2
			c-0.1,0.1-0.2,0.1-0.3,0.1s-0.2,0-0.3-0.1c-0.1-0.1-0.2-0.1-0.2-0.2l-2.2-4.8c0-0.1,0-0.1,0-0.2c0-0.1,0.1-0.2,0.2-0.3
			c0.1-0.1,0.2-0.1,0.4-0.1c0.1,0,0.2,0,0.3,0.1c0.1,0,0.1,0.1,0.2,0.2l1.8,4.1l1.8-4.1C236.9,105.4,237.1,105.3,237.3,105.3z"/>
		<path class="st5" d="M239.4,110.9c-0.1-0.1-0.1-0.2-0.1-0.4v-4.7c0-0.2,0-0.3,0.1-0.4c0.1-0.1,0.2-0.1,0.4-0.1h2.9
			c0.2,0,0.3,0,0.4,0.1c0.1,0.1,0.1,0.2,0.1,0.3c0,0.1,0,0.2-0.1,0.3c-0.1,0.1-0.2,0.1-0.4,0.1h-2.4v1.6h2.2c0.2,0,0.3,0,0.4,0.1
			c0.1,0.1,0.1,0.2,0.1,0.3c0,0.1,0,0.2-0.1,0.3c-0.1,0.1-0.2,0.1-0.4,0.1h-2.2v1.6h2.4c0.2,0,0.3,0,0.4,0.1
			c0.1,0.1,0.1,0.2,0.1,0.3c0,0.1,0,0.2-0.1,0.3c-0.1,0.1-0.2,0.1-0.4,0.1h-2.9C239.6,111,239.5,111,239.4,110.9z"/>
		<path class="st5" d="M249.4,110.6c0,0.1,0,0.2-0.1,0.3c-0.1,0.1-0.2,0.1-0.3,0.1c-0.1,0-0.2,0-0.2-0.1c-0.1,0-0.1-0.1-0.2-0.2
			l-1.1-1.6c-0.1-0.2-0.2-0.3-0.3-0.4s-0.3-0.1-0.5-0.1h-0.8v1.8c0,0.2,0,0.3-0.1,0.4c-0.1,0.1-0.2,0.1-0.4,0.1s-0.3,0-0.4-0.1
			c-0.1-0.1-0.1-0.2-0.1-0.4v-4.7c0-0.2,0-0.3,0.1-0.4c0.1-0.1,0.2-0.1,0.4-0.1h2c0.6,0,1.1,0.1,1.5,0.4c0.3,0.3,0.5,0.7,0.5,1.2
			c0,0.4-0.1,0.8-0.4,1.1c-0.2,0.3-0.6,0.5-1.1,0.5c0.2,0,0.3,0.1,0.4,0.2s0.2,0.2,0.3,0.4l0.7,1.1
			C249.3,110.4,249.4,110.5,249.4,110.6z M248,107.7c0.2-0.1,0.3-0.4,0.3-0.7c0-0.3-0.1-0.5-0.3-0.7c-0.2-0.1-0.5-0.2-0.9-0.2h-1.3
			v1.8h1.3C247.5,107.9,247.8,107.9,248,107.7z"/>
	</g>
	<g class="st4">
		<path class="st5" d="M273.2,105.5c0.1,0.1,0.1,0.2,0.1,0.4v4.7c0,0.2,0,0.3-0.1,0.4c-0.1,0.1-0.2,0.1-0.4,0.1
			c-0.2,0-0.3-0.1-0.4-0.2l-2.9-3.8v3.5c0,0.2,0,0.3-0.1,0.4c-0.1,0.1-0.2,0.1-0.4,0.1s-0.3,0-0.4-0.1c-0.1-0.1-0.1-0.2-0.1-0.4
			v-4.7c0-0.2,0-0.3,0.1-0.4c0.1-0.1,0.2-0.1,0.4-0.1c0.2,0,0.3,0.1,0.4,0.2l2.9,3.8v-3.5c0-0.2,0-0.3,0.1-0.4
			c0.1-0.1,0.2-0.1,0.3-0.1C273,105.3,273.1,105.4,273.2,105.5z"/>
		<path class="st5" d="M276.5,110.7c-0.4-0.2-0.7-0.6-0.9-1s-0.3-0.9-0.3-1.5c0-0.6,0.1-1.1,0.3-1.5c0.2-0.4,0.5-0.8,0.9-1
			c0.4-0.2,0.9-0.4,1.4-0.4c0.5,0,1,0.1,1.4,0.4c0.4,0.2,0.7,0.6,0.9,1c0.2,0.4,0.3,0.9,0.3,1.5c0,0.6-0.1,1.1-0.3,1.5
			s-0.5,0.8-0.9,1c-0.4,0.2-0.9,0.4-1.4,0.4C277.3,111.1,276.9,111,276.5,110.7z M279.1,109.7c0.3-0.4,0.4-0.9,0.4-1.5
			c0-0.7-0.1-1.2-0.4-1.5c-0.3-0.4-0.7-0.5-1.2-0.5c-0.5,0-0.9,0.2-1.2,0.5c-0.3,0.4-0.4,0.9-0.4,1.5c0,0.7,0.1,1.2,0.4,1.5
			s0.7,0.5,1.2,0.5C278.4,110.2,278.8,110.1,279.1,109.7z"/>
		<path class="st5" d="M286.8,105.3c0.1,0,0.3,0,0.4,0.1c0.1,0.1,0.2,0.2,0.2,0.3c0,0.1,0,0.1,0,0.2l-2.2,4.8c0,0.1-0.1,0.2-0.2,0.2
			s-0.2,0.1-0.3,0.1c-0.1,0-0.2,0-0.3-0.1s-0.2-0.1-0.2-0.2l-2.2-4.8c0-0.1,0-0.1,0-0.2c0-0.1,0.1-0.2,0.2-0.3
			c0.1-0.1,0.2-0.1,0.4-0.1c0.1,0,0.2,0,0.3,0.1c0.1,0,0.1,0.1,0.2,0.2l1.8,4.1l1.8-4.1C286.5,105.4,286.6,105.3,286.8,105.3z"/>
		<path class="st5" d="M295.6,110.6c0,0.3-0.2,0.4-0.5,0.4h-2.7c-0.3,0-0.5-0.1-0.5-0.4c0-0.3,0.2-0.4,0.5-0.4h0.8v-3.6l-0.8,0.5
			c-0.1,0-0.1,0.1-0.2,0.1c-0.1,0-0.2,0-0.3-0.1c-0.1-0.1-0.1-0.2-0.1-0.3c0-0.2,0.1-0.3,0.2-0.4l1.2-0.8c0.2-0.1,0.3-0.1,0.5-0.1
			c0.1,0,0.3,0,0.4,0.1c0.1,0.1,0.1,0.2,0.1,0.4v4.3h0.8C295.5,110.2,295.6,110.3,295.6,110.6z"/>
		<path class="st5" d="M301.2,110.6c0,0.3-0.2,0.4-0.5,0.4h-3c-0.1,0-0.2,0-0.3-0.1s-0.1-0.2-0.1-0.3c0-0.2,0.1-0.3,0.2-0.4l1.8-2
			c0.2-0.2,0.4-0.5,0.5-0.7c0.1-0.2,0.2-0.4,0.2-0.6c0-0.2-0.1-0.4-0.2-0.6c-0.1-0.1-0.3-0.2-0.6-0.2c-0.2,0-0.4,0-0.6,0.1
			c-0.2,0.1-0.4,0.2-0.6,0.3c-0.1,0-0.1,0.1-0.2,0.1s-0.1,0-0.2,0c-0.1,0-0.2,0-0.2-0.1s-0.1-0.2-0.1-0.3c0-0.1,0-0.1,0-0.2
			s0.1-0.1,0.1-0.2c0.2-0.2,0.5-0.3,0.8-0.4c0.3-0.1,0.6-0.2,0.9-0.2c0.5,0,1,0.1,1.3,0.4s0.5,0.7,0.5,1.1c0,0.3-0.1,0.6-0.2,0.9
			s-0.4,0.6-0.7,1l-1.4,1.5h2.1C301,110.2,301.2,110.3,301.2,110.6z"/>
		<path class="st5" d="M302.5,109.1c-0.1-0.1-0.1-0.1-0.1-0.2s0-0.2,0.1-0.2c0.1-0.1,0.2-0.1,0.3-0.1h3.2c0.1,0,0.2,0,0.3,0.1
			c0.1,0.1,0.1,0.1,0.1,0.2s0,0.2-0.1,0.2c-0.1,0.1-0.2,0.1-0.3,0.1h-3.2C302.6,109.2,302.5,109.1,302.5,109.1z"/>
		<path class="st5" d="M311.6,110.6c0,0.3-0.2,0.4-0.5,0.4h-2.7c-0.3,0-0.5-0.1-0.5-0.4c0-0.3,0.2-0.4,0.5-0.4h0.8v-3.6l-0.8,0.5
			c-0.1,0-0.1,0.1-0.2,0.1c-0.1,0-0.2,0-0.3-0.1c-0.1-0.1-0.1-0.2-0.1-0.3c0-0.2,0.1-0.3,0.2-0.4l1.2-0.8c0.2-0.1,0.3-0.1,0.5-0.1
			c0.1,0,0.3,0,0.4,0.1c0.1,0.1,0.1,0.2,0.1,0.4v4.3h0.8C311.5,110.2,311.6,110.3,311.6,110.6z"/>
		<path class="st5" d="M317.1,105.5c0.1,0.1,0.1,0.2,0.1,0.3c0,0.1,0,0.2-0.1,0.4l-2.6,4.6c-0.1,0.2-0.3,0.3-0.4,0.3
			c-0.1,0-0.2,0-0.3-0.1c-0.1-0.1-0.1-0.2-0.1-0.3c0-0.1,0-0.2,0.1-0.3l2.3-4.1h-2.4c-0.3,0-0.5-0.1-0.5-0.4c0-0.3,0.2-0.4,0.5-0.4
			h3.2C316.9,105.4,317,105.4,317.1,105.5z"/>
	</g>
</g>
</svg>
